<svg width="100" height="40" viewBox="0 0 100 40" fill="none" xmlns="http://www.w3.org/2000/svg">
<rect width="100" height="40" fill="none"/>
<path class="logo" id="logo" d="M3 35.1333C3 34.4904 3.32705 34.2334 3.78778 33.8237C5.2079 32.5612 6.54232 31.2227 7.87753 29.8598C12.3787 25.2654 16.7773 20.484 20.901 15.5084C22.279 13.8458 23.3311 12.0865 24.3371 10.1554C25.0153 8.85358 26.0798 7.58323 26.4993 6.15608C26.8924 4.81865 26.9464 2.48039 25.0746 3.10352C24.0575 3.4421 23.2974 4.18299 22.4598 4.83773C21.6184 5.49547 20.8016 5.98021 20.1468 6.87277C18.9205 8.54441 18.2461 10.1937 17.5572 12.1462C16.7627 14.3975 16.7416 16.7122 17.7499 18.8176C18.8662 21.1484 20.4393 22.141 22.4431 23.5689C23.9818 24.6655 25.3713 25.2578 26.382 27.0108C27.5686 29.069 27.069 30.7052 25.9965 32.6381C25.0322 34.3757 23.29 35.7592 21.3703 36.0534C20.3791 36.2054 18.6706 35.3056 18.6885 34.1334C18.716 32.3374 20.8521 30.5222 21.9151 29.3555C23.745 27.3471 25.6908 25.4665 27.6977 23.6574C30.2261 21.3783 32.6165 19.3562 34.4944 16.4198C35.8123 14.3589 37.5858 11.8068 37.8802 9.26173C37.9396 8.74781 38.3237 6.35648 37.4695 6.15608C36.559 5.94246 36.2315 14.045 36.2208 14.5705C36.1079 20.1099 36.4463 25.5443 36.908 31.0455C36.9743 31.8346 36.6399 31.4866 36.6399 30.8862C36.6399 29.3067 37.2892 27.7964 38.2322 26.5861C39.1164 25.4512 42.0739 23.5859 43.2606 25.2943C44.3047 26.7976 43.3837 28.7999 43.4282 30.4438C43.4919 32.8001 47.5239 28.2367 47.7358 27.9841C49.1723 26.2718 49.8955 24.2458 50.7026 22.1621C50.7534 22.0308 52.1144 18.5673 51.1048 19.0034C50.3425 19.3326 47.7517 21.9848 49.2779 22.6045C51.3057 23.428 55.0585 20.7593 56.6612 23.0557C57.5622 24.3467 56.4325 26.7677 57.7339 27.639C59.0219 28.5013 61.1437 28.143 62.5612 28.1079C66.9532 27.9995 71.3316 27.5084 75.7271 27.4001C80.7419 27.2766 85.6848 27.7996 90.6614 28.3734C92.7529 28.6145 94.8823 28.6135 96.9637 28.922C97.2884 28.9701 98.2565 29.0087 97.9358 29.0812C96.2433 29.4641 94.7513 29.7006 92.9829 29.7006C87.696 29.7006 82.4574 29.4726 77.177 30.0014C67.8801 30.9325 58.7828 33.2382 49.5125 34.3458C42.6869 35.1613 35.8089 35.2519 28.9716 35.9473C23.0476 36.5497 17.1413 37.3338 11.1963 37.6815C8.76752 37.8235 1.47264 38 3.90511 38" stroke="url(#paint0_linear_1_2)" stroke-width="2.6" stroke-linecap="round"/>
<defs>
<linearGradient id="paint0_linear_1_2" x1="5.41362" y1="5.19165" x2="100.791" y2="31.9909" gradientUnits="userSpaceOnUse">
<stop offset="0.0171147" stop-color="#FF5C00"/>
<stop offset="1" stop-color="#5F00D8"/>
</linearGradient>
<style>
    			.logo{
    				stroke-dasharray: 335.5;
					stroke-dashoffset: 335.5;
					animation: fillSvg1 6s linear infinite;			
    			}
    			
    			@keyframes fillSvg1{
				  0%{
					stroke-dashoffset: 335.5;
				  }
				  100%{
					stroke-dashoffset: 0;
				  }
				}
</style>
</defs>
</svg>
